{"title":"Thunderbirds Are Go S01E17 Heist Society 1080P WEB-DL DD5 1 H 26","uid":12819493,"size":965377484,"categoryP":"video","categoryS":"hd___tv_shows","magnet":"?xt=urn:btih:9725ec157dcaa8f39eea786127f3ed1a714a342f&amp;dn=Thunderbirds+Are+Go+S01E17+Heist+Society+1080P+WEB-DL+DD5+1+H+26&amp;tr=udp%3A%2F%2Ftracker.leechers-paradise.org%3A6969&amp;tr=udp%3A%2F%2Fzer0day.ch%3A1337&amp;tr=udp%3A%2F%2Fopen.demonii.com%3A1337&amp;tr=udp%3A%2F%2Ftracker.coppersurfer.tk%3A6969&amp;tr=udp%3A%2F%2Fexodus.desync.com%3A6969","seeders":0,"leechers":0,"uploader":"jmanwf","files":1,"time":1448276052,"description":"The GDF is transporting a man-made isotope (Centurium 21) that can power a new type of energy generator, but Colonel Casey is worried that the Hood may try to steal it. To fool him, the GDF stages a fake convoy while Lady Penelope and Parker escort the real isotope on an underwater hyperloop train. Unphased - the Hood blows up the train tunnel, which strands the passengers and allows the Hood access to the isotope. Gordon and Virgil rescue the passengers on the train with TB2 and TB4 while Lady P and Parker chase down the Hood with the help of FAB1.\r\n\r\n\r\n\r\nVideo\r\nID : 2\r\nFormat : AVC\r\nFormat/Info : Advanced Video Codec\r\nFormat profile :   \r\nFormat settings, CABAC : Yes\r\nFormat settings, ReFrames : 4 frames\r\nCodec ID : avc1\r\nCodec ID/Info : Advanced Video Coding\r\nDuration : 22mn 18s\r\nBit rate : 5 259 Kbps\r\nWidth : 1 912 pixels\r\nHeight : 1 072 pixels\r\nDisplay aspect ratio : 16:9\r\nFrame rate mode : Constant\r\nFrame rate : 25.000 fps\r\nColor space : YUV\r\nChroma subsampling : 4:2:0\r\nBit depth : 8 bits\r\nScan type : Progressive\r\nBits/(Pixel*Frame) : 0.103\r\nStream size : 839 MiB (91%)\r\nLanguage : English\r\nEncoded date : UTC 2015-11-23 05:38:00\r\nTagged date : UTC 2015-11-23 05:40:10\r\nColor range : Limited\r\nColor primaries : BT.709\r\nTransfer characteristics : BT.709\r\nMatrix coefficients : BT.709\r\n\r\nAudio #1\r\nID : 1\r\nFormat : AAC\r\nFormat/Info : Advanced Audio Codec\r\nFormat profile : LC\r\nCodec ID : 40\r\nDuration : 22mn 18s\r\nBit rate mode : Variable\r\nBit rate : 125 Kbps\r\nMaximum bit rate : 201 Kbps\r\nChannel(s) : 2 channels\r\nChannel positions : Front: L R\r\nSampling rate : 48.0 KHz\r\nCompression mode : Lossy\r\nStream size : 19.9 MiB (2%)\r\nLanguage : English\r\nEncoded date : UTC 2015-11-23 05:38:00\r\nTagged date : UTC 2015-11-23 05:40:10\r\n\r\nAudio #2\r\nID : 3\r\nFormat : AC-3\r\nFormat/Info : Audio Coding 3\r\nMode extension : CM (complete main)\r\nFormat settings, Endianness : Big\r\nCodec ID : ac-3\r\nDuration : 22mn 18s\r\nBit rate mode : Constant\r\nBit rate : 384 Kbps\r\nChannel(s) : 6 channels\r\nChannel positions : Front: L C R, Side: L R, LFE\r\nSampling rate : 48.0 KHz\r\nBit depth : 16 bits\r\nCompression mode : Lossy\r\nStream size : 61.2 MiB (7%)\r\nLanguage : English\r\nEncoded date : UTC 2015-11-23 05:38:00\r\nTagged date : UTC 2015-11-23 05:40:10\r\n\r\n\r\n \nhttps://itunes.apple.com/au/tv-season/thunderbirds-are-go-vol.-2/id1050875675","torrent":{"xt":"urn:btih:9725ec157dcaa8f39eea786127f3ed1a714a342f","amp;dn":"Thunderbirds+Are+Go+S01E17+Heist+Society+1080P+WEB-DL+DD5+1+H+26","amp;tr":["udp%3A%2F%2Ftracker.leechers-paradise.org%3A6969","udp%3A%2F%2Fzer0day.ch%3A1337","udp%3A%2F%2Fopen.demonii.com%3A1337","udp%3A%2F%2Ftracker.coppersurfer.tk%3A6969","udp%3A%2F%2Fexodus.desync.com%3A6969"],"infoHash":"9725ec157dcaa8f39eea786127f3ed1a714a342f","infoHashBuffer":{"type":"Buffer","data":[151,37,236,21,125,202,168,243,158,234,120,97,39,243,237,26,113,74,52,47]},"announce":[],"urlList":[]}}